<svg width="32" height="32" viewBox="0 0 32 32" fill="none" xmlns="http://www.w3.org/2000/svg">
<rect width="32" height="32" rx="6" fill="#1D70EA"/>
<g clip-path="url(#clip0_1_2)">
<path d="M21.4117 7.14534V10.1778C21.4117 13.1445 18.9684 15.5451 15.9359 15.567H10.9834C7.12144 15.5658 4.0023 18.6422 4.0023 22.4164V25.4489H10.6126V22.3944C10.6126 19.4278 13.0559 17.0272 16.0884 17.0053H21.0409C24.8809 17.0053 28 13.9508 28 10.1767V7.14534H21.4117Z" fill="white"/>
<path d="M7.31668 13.1733C9.14843 13.1733 10.6334 11.6884 10.6334 9.85667C10.6334 8.02492 9.14843 6.53999 7.31668 6.53999C5.48493 6.53999 4 8.02492 4 9.85667C4 11.6884 5.48493 13.1733 7.31668 13.1733Z" fill="white"/>
</g>
<defs>
<clipPath id="clip0_1_2">
<rect width="24" height="18.9089" fill="white" transform="translate(4 6.53999)"/>
</clipPath>
</defs>
</svg>
